<?xml version="1.0" encoding="UTF-8"?>
<svg version="1.1" xmlns="http://www.w3.org/2000/svg" width="292" height="65">
<path d="M0 0 C1.16402344 0.25716797 1.16402344 0.25716797 2.3515625 0.51953125 C4.375 1.1875 4.375 1.1875 6.375 3.1875 C6.78234375 2.71054687 7.1896875 2.23359375 7.609375 1.7421875 C10.70807069 -0.98631003 14.37223369 -0.92534747 18.375 -0.8125 C21.72563282 -0.0489848 24.56888151 0.98382991 26.55419922 3.94824219 C27.56229727 6.69847281 27.60145821 8.9004287 27.5703125 11.828125 C27.56386719 12.89804687 27.55742187 13.96796875 27.55078125 15.0703125 C27.53402344 16.18148437 27.51726562 17.29265625 27.5 18.4375 C27.49097656 19.56414063 27.48195313 20.69078125 27.47265625 21.8515625 C27.44910658 24.63042365 27.4162168 27.4088539 27.375 30.1875 C24.735 30.1875 22.095 30.1875 19.375 30.1875 C19.345271 29.35557129 19.345271 29.35557129 19.31494141 28.50683594 C19.21942349 25.98326307 19.10985433 23.46048776 19 20.9375 C18.9690625 20.06480469 18.938125 19.19210938 18.90625 18.29296875 C18.84824219 17.02646484 18.84824219 17.02646484 18.7890625 15.734375 C18.7576416 14.95932617 18.7262207 14.18427734 18.69384766 13.38574219 C18.34473494 10.97884258 17.56948896 9.29147705 16.375 7.1875 C13.95880177 6.93719023 13.95880177 6.93719023 11.375 7.1875 C9.28754955 10.31867567 9.09846004 11.25696224 8.9609375 14.85546875 C8.92226563 15.74814453 8.88359375 16.64082031 8.84375 17.56054688 C8.79734375 18.95370117 8.79734375 18.95370117 8.75 20.375 C8.71132813 21.31537109 8.67265625 22.25574219 8.6328125 23.22460938 C8.53857326 25.54525066 8.45569877 27.86634841 8.375 30.1875 C5.405 30.1875 2.435 30.1875 -0.625 30.1875 C-0.65005615 29.5262915 -0.6751123 28.86508301 -0.70092773 28.18383789 C-0.81653102 25.20567695 -0.93941754 22.2278608 -1.0625 19.25 C-1.10181641 18.20908203 -1.14113281 17.16816406 -1.18164062 16.09570312 C-1.22353516 15.10634766 -1.26542969 14.11699219 -1.30859375 13.09765625 C-1.34525146 12.18121338 -1.38190918 11.26477051 -1.41967773 10.32055664 C-1.39503864 8.2054272 -1.39503864 8.2054272 -2.625 7.1875 C-5.08292029 6.85406449 -5.08292029 6.85406449 -7.625 7.1875 C-9.71245045 10.31867567 -9.90153996 11.25696224 -10.0390625 14.85546875 C-10.09707031 16.19448242 -10.09707031 16.19448242 -10.15625 17.56054688 C-10.20265625 18.95370117 -10.20265625 18.95370117 -10.25 20.375 C-10.30800781 21.78555664 -10.30800781 21.78555664 -10.3671875 23.22460938 C-10.46142674 25.54525066 -10.54430123 27.86634841 -10.625 30.1875 C-13.595 30.1875 -16.565 30.1875 -19.625 30.1875 C-19.625 20.2875 -19.625 10.3875 -19.625 0.1875 C-16.985 0.1875 -14.345 0.1875 -11.625 0.1875 C-11.295 0.8475 -10.965 1.5075 -10.625 2.1875 C-9.965 1.5275 -9.305 0.8675 -8.625 0.1875 C-5.47916614 -0.97043459 -3.23266322 -0.751405 0 0 Z " fill="#272727" transform="translate(249.625,21.8125)"/>
<path d="M0 0 C3.05383204 1.52691602 3.38086503 3.95216256 4.625 7.0625 C5.07101563 8.16722656 5.51703125 9.27195312 5.9765625 10.41015625 C6.31429687 11.26480469 6.65203125 12.11945312 7 13 C7.34933594 12.21753906 7.69867188 11.43507813 8.05859375 10.62890625 C8.51363281 9.61699219 8.96867187 8.60507812 9.4375 7.5625 C9.88996094 6.55316406 10.34242187 5.54382813 10.80859375 4.50390625 C12 2 12 2 13 1 C15.67058851 0.85884839 18.32432238 0.95752893 21 1 C20.46706455 7.09186216 18.53146928 11.99967187 16.0625 17.5625 C13.83517157 22.65865931 11.6474413 27.67816083 10 33 C7 32 7 32 5.39453125 29.05859375 C4.87246094 27.86363281 4.35039062 26.66867188 3.8125 25.4375 C3.28269531 24.23996094 2.75289062 23.04242188 2.20703125 21.80859375 C1.80871094 20.88175781 1.41039063 19.95492187 1 19 C-1.46620289 21.46620289 -2.59283283 23.99404969 -4.125 27.125 C-4.93324219 28.76855469 -4.93324219 28.76855469 -5.7578125 30.4453125 C-6.37269531 31.70988281 -6.37269531 31.70988281 -7 33 C-11.17636028 29.32863915 -12.59275349 24.29783811 -14.625 19.25 C-15.03234375 18.27289063 -15.4396875 17.29578125 -15.859375 16.2890625 C-17.94887123 11.15526712 -19.55158637 6.53558901 -20 1 C-17.03 1 -14.06 1 -11 1 C-7.91964286 10.10714286 -7.91964286 10.10714286 -7 14 C-6.57847656 13.07316406 -6.15695313 12.14632812 -5.72265625 11.19140625 C-5.17480469 9.99386719 -4.62695312 8.79632813 -4.0625 7.5625 C-3.24458984 5.77005859 -3.24458984 5.77005859 -2.41015625 3.94140625 C-1 1 -1 1 0 0 Z " fill="#363636" transform="translate(26,20)"/>
<path d="M0 0 C1.19882813 0.15275391 1.19882813 0.15275391 2.421875 0.30859375 C3.02515625 0.39238281 3.6284375 0.47617187 4.25 0.5625 C4.58 1.5525 4.91 2.5425 5.25 3.5625 C5.91 3.5625 6.57 3.5625 7.25 3.5625 C7.25 2.5725 7.25 1.5825 7.25 0.5625 C9.89 0.5625 12.53 0.5625 15.25 0.5625 C15.25 10.4625 15.25 20.3625 15.25 30.5625 C12.61 30.5625 9.97 30.5625 7.25 30.5625 C7.25 29.5725 7.25 28.5825 7.25 27.5625 C6.42628906 28.29146484 6.42628906 28.29146484 5.5859375 29.03515625 C1.47381222 31.72385355 -3.01147438 31.18056856 -7.75 30.5625 C-12.33273187 28.35296856 -14.49039918 26.05595121 -16.75 21.5625 C-17.58248306 15.99011341 -17.49625519 11.08166235 -15 6 C-10.33159942 0.94256604 -6.89919125 -0.91312825 0 0 Z M-7.609375 9.8984375 C-9.86176965 13.18446531 -9.3646759 15.69004182 -8.75 19.5625 C-7.41666667 22.22916667 -7.41666667 22.22916667 -4.75 23.5625 C-1.78467496 24.13527908 0.15023635 23.95612078 3.25 23.5625 C5.47303517 22.23984485 5.47303517 22.23984485 6.25 19.5625 C6.63619753 16.5060224 6.82029122 13.5984621 6.25 10.5625 C4.39231936 8.19866869 3.32556983 7.58936927 0.4375 6.5625 C-3.17856285 6.5625 -4.96927339 7.41118388 -7.609375 9.8984375 Z " fill="#242424" transform="translate(207.75,21.4375)"/>
<path d="M0 0 C0.86625 0.721875 1.7325 1.44375 2.625 2.1875 C3.5221875 2.93 3.5221875 2.93 4.4375 3.6875 C7.62885894 7.71869024 6.625 12.05848385 6.625 17.1875 C-0.965 17.1875 -8.555 17.1875 -16.375 17.1875 C-12.88331425 21.51997592 -12.88331425 21.51997592 -8.75 21.5625 C-5.30667398 21.53563734 -5.30667398 21.53563734 -3.375 19.1875 C-1 18.8125 -1 18.8125 1.625 19.1875 C3.9375 21.1875 3.9375 21.1875 5.625 23.1875 C2.36456724 26.68082082 -0.11879685 28.92507154 -4.9609375 29.48828125 C-12.33786112 29.51927673 -16.45987047 28.59565048 -22.25 23.8125 C-25.36741313 19.78415446 -25.06172183 15.15214235 -24.85546875 10.2578125 C-24.1287998 5.6142207 -23.03188123 4.14412738 -19.375 1.1875 C-12.97110782 -2.50705318 -6.58443029 -3.53608293 0 0 Z M-14.8125 8.1875 C-15.328125 8.8475 -15.84375 9.5075 -16.375 10.1875 C-13.217224 12.292684 -12.42102866 12.44039344 -8.8125 12.375 C-8.02746094 12.36855469 -7.24242187 12.36210938 -6.43359375 12.35546875 C-4.31145328 12.31114089 -4.31145328 12.31114089 -2.375 11.1875 C-3.59507944 8.4969472 -3.59507944 8.4969472 -5.375 6.1875 C-10.51631184 5.65936651 -10.51631184 5.65936651 -14.8125 8.1875 Z " fill="#242424" transform="translate(121.375,22.8125)"/>
<path d="M0 0 C4.324855 2.20322802 7.60172751 4.75690252 10 9 C10 12.3 10 15.6 10 19 C2.41 19 -5.18 19 -13 19 C-9.50831425 23.33247592 -9.50831425 23.33247592 -5.375 23.375 C-1.93167398 23.34813734 -1.93167398 23.34813734 0 21 C2.375 20.625 2.375 20.625 5 21 C7.3125 23 7.3125 23 9 25 C4.48505048 29.63376398 2.70533798 31.15365167 -3.75 31.25 C-10.40450926 31.17049571 -13.78993552 29.87375032 -18.875 25.5625 C-21.85387244 21.73801216 -21.51678891 17.56812321 -21.46875 12.90234375 C-20.69226132 8.09458469 -18.85790158 5.64342618 -15 2.75 C-10.00600414 -0.16316425 -5.67464341 -0.69961357 0 0 Z M-11.4375 9.875 C-13.19746348 11.82894726 -13.19746348 11.82894726 -13 14 C-8.38 14 -3.76 14 1 14 C0.37158027 10.0285831 0.37158027 10.0285831 -2 8 C-6.04637274 7.55040303 -8.15244824 7.34803711 -11.4375 9.875 Z " fill="#252525" transform="translate(176,21)"/>
<path d="M0 0 C1.921875 1.09765625 1.921875 1.09765625 4.734375 3.09765625 C3.53056052 5.59127196 2.28008778 7.77908708 0.734375 10.09765625 C-3.140625 9.22265625 -3.140625 9.22265625 -4.265625 8.09765625 C-6.59859933 8.05672688 -8.93267725 8.05523902 -11.265625 8.09765625 C-11.265625 8.75765625 -11.265625 9.41765625 -11.265625 10.09765625 C-10.36199219 10.27941406 -9.45835938 10.46117187 -8.52734375 10.6484375 C-7.34785156 10.89980469 -6.16835937 11.15117188 -4.953125 11.41015625 C-3.78136719 11.65378906 -2.60960937 11.89742187 -1.40234375 12.1484375 C1.65193513 13.07270869 2.92163855 13.53739962 4.734375 16.09765625 C5.74582263 19.99895426 6.13846735 22.18844846 4.484375 25.91015625 C2.734375 28.09765625 2.734375 28.09765625 -0.265625 30.09765625 C-8.18336151 30.95309009 -14.81100213 31.01546415 -21.265625 26.09765625 C-20.515625 23.66015625 -20.515625 23.66015625 -19.265625 21.09765625 C-17.390625 20.16015625 -17.390625 20.16015625 -15.265625 20.09765625 C-13.93229167 20.76432292 -12.59895833 21.43098958 -11.265625 22.09765625 C-8.09866544 22.26490362 -8.09866544 22.26490362 -5.265625 22.09765625 C-4.935625 21.43765625 -4.605625 20.77765625 -4.265625 20.09765625 C-5.62107422 19.71673828 -5.62107422 19.71673828 -7.00390625 19.328125 C-8.18339844 18.98394531 -9.36289063 18.63976562 -10.578125 18.28515625 C-11.74988281 17.94871094 -12.92164062 17.61226562 -14.12890625 17.265625 C-17.05930787 16.17447919 -18.47165904 15.59683642 -20.265625 13.09765625 C-21.05246458 9.76871956 -21.53930874 7.19239121 -20.703125 3.84765625 C-15.88130713 -2.0223829 -6.77393516 -2.69789487 0 0 Z " fill="#323232" transform="translate(87.265625,21.90234375)"/>
<path d="M0 0 C0 2.31 0 4.62 0 7 C1.65 7.33 3.3 7.66 5 8 C5 10.31 5 12.62 5 15 C3.68 15.33 2.36 15.66 1 16 C0.67 20.62 0.34 25.24 0 30 C1.65 30.33 3.3 30.66 5 31 C5 33.31 5 35.62 5 38 C2.03517108 38.91531631 -0.03618557 39.06306378 -3.0625 38.375 C-3.73410156 38.23835938 -4.40570313 38.10171875 -5.09765625 37.9609375 C-8.00575498 36.4919595 -8.72372163 34.98980025 -10 32 C-10.34240289 29.0490704 -10.28444202 26.15293144 -10.1875 23.1875 C-10.16719727 22.00510742 -10.16719727 22.00510742 -10.14648438 20.79882812 C-10.11133456 18.86558831 -10.05753361 16.93270318 -10 15 C-10.99 14.67 -11.98 14.34 -13 14 C-13 12.02 -13 10.04 -13 8 C-12.34 7.67 -11.68 7.34 -11 7 C-10.59270772 4.67843403 -10.25561323 2.3431213 -10 0 C-6.30581799 -1.231394 -3.7943739 -0.64432764 0 0 Z " fill="#373737" transform="translate(145,14)"/>
<path d="M0 0 C1.134375 0.020625 2.26875 0.04125 3.4375 0.0625 C4.84051133 2.86852265 4.5672542 5.21268367 4.5703125 8.34765625 C4.57160156 9.59998047 4.57289062 10.85230469 4.57421875 12.14257812 C4.57035156 13.45677734 4.56648438 14.77097656 4.5625 16.125 C4.56636719 17.44306641 4.57023437 18.76113281 4.57421875 20.11914062 C4.57292969 21.37017578 4.57164063 22.62121094 4.5703125 23.91015625 C4.56918457 25.06523682 4.56805664 26.22031738 4.56689453 27.41040039 C4.4375 30.0625 4.4375 30.0625 3.4375 31.0625 C0.76691149 31.20365161 -1.88682238 31.10497107 -4.5625 31.0625 C-5.33417818 27.03523462 -5.64903983 23.35583967 -5.4765625 19.26171875 C-5.43273438 18.20275391 -5.38890625 17.14378906 -5.34375 16.05273438 C-5.2921875 14.96283203 -5.240625 13.87292969 -5.1875 12.75 C-5.14367188 11.64076172 -5.09984375 10.53152344 -5.0546875 9.38867188 C-4.64432751 0.08147943 -4.64432751 0.08147943 0 0 Z " fill="#3B3B3B" transform="translate(56.5625,20.9375)"/>
<path d="M0 0 C3 0.25 3 0.25 5 2.25 C4.625 5.875 4.625 5.875 4 9.25 C-2.15234375 9.34765625 -2.15234375 9.34765625 -4 9.25 C-5 8.25 -5 8.25 -5.1875 5.3125 C-4.93154618 1.13192099 -4.17353375 0.34779448 0 0 Z " fill="#545454" transform="translate(56,9.75)"/>
<path d="M0 0 C0.66 0.33 1.32 0.66 2 1 C1.0479279 2.00596297 0.08812654 3.00461563 -0.875 4 C-1.40867188 4.556875 -1.94234375 5.11375 -2.4921875 5.6875 C-4 7 -4 7 -6 7 C-4.60667426 3.63279613 -3.0210714 2.0140476 0 0 Z " fill="#787878" transform="translate(162,23)"/>
<path d="M0 0 C0.66 0.33 1.32 0.66 2 1 C1.0479279 2.00596297 0.08812654 3.00461563 -0.875 4 C-1.40867187 4.556875 -1.94234375 5.11375 -2.4921875 5.6875 C-4 7 -4 7 -6 7 C-4.60667426 3.63279613 -3.0210714 2.0140476 0 0 Z " fill="#787878" transform="translate(104,23)"/>
</svg>
